# xmcd
#
# Track frame offsets: 
#        182
#        17182
#        30832
#        47857
#        62182
#        80632
#        98557
#        111082
#        127057
#
# Disc length: 1966 seconds
#
# Revision: 0
# Processed by: cddbd v1.5.1PL0 Copyright (c) Steve Scherf et al.
# Submitted via: ExactAudioCopy v0.95a4
#
DISCID=7107ac09
DTITLE=The Clip Clop Club - 9 Smash Hits
DYEAR=1900
DGENRE=Folk/Rock
TTITLE0=The Burning Bush
TTITLE1=They Built The Ute
TTITLE2=I Don't Live There Anymore
TTITLE3=Hear My Heart
TTITLE4=Revenge
TTITLE5=Never Think Of Nothin' But You
TTITLE6=Give Me 40 Acres (and I'll turn this rig around)
TTITLE7=There Aint No 7-11s in Heaven
TTITLE8=Rachel
EXTD=
EXTT0=
EXTT1=
EXTT2=
EXTT3=
EXTT4=
EXTT5=
EXTT6=
EXTT7=
EXTT8=
PLAYORDER=
